<svg xmlns="http://www.w3.org/2000/svg" width="350" height="100" fill="none" viewBox="0 0 350 100"><path fill="#454545" d="M30.704 74.64C27.76 74.64 25.136 73.936 22.832 72.528C20.5707 71.12 18.7787 69.2 17.456 66.768C16.176 64.336 15.536 61.5627 15.536 58.448C15.536 55.3333 16.176 52.56 17.456 50.128C18.7787 47.696 20.5707 45.776 22.832 44.368C25.136 42.96 27.76 42.256 30.704 42.256C32.8373 42.256 34.7573 42.6613 36.464 43.472C38.2133 44.2827 39.6427 45.4133 40.752 46.864C41.904 48.272 42.544 49.8933 42.672 51.728V64.848C42.544 66.6827 41.9253 68.3467 40.816 69.84C39.7067 71.2907 38.2773 72.464 36.528 73.36C34.7787 74.2133 32.8373 74.64 30.704 74.64ZM32.432 65.808C33.84 65.808 35.056 65.5093 36.08 64.912C37.104 64.272 37.9147 63.3973 38.512 62.288C39.1093 61.1787 39.408 59.8987 39.408 58.448C39.408 56.9973 39.1093 55.7387 38.512 54.672C37.9573 53.5627 37.1467 52.688 36.08 52.048C35.056 51.408 33.8613 51.088 32.496 51.088C31.1307 51.088 29.9147 51.408 28.848 52.048C27.824 52.688 26.992 53.5627 26.352 54.672C25.7547 55.7813 25.456 57.04 25.456 58.448C25.456 59.856 25.7547 61.1147 26.352 62.224C26.9493 63.3333 27.7813 64.208 28.848 64.848C29.9147 65.488 31.1093 65.808 32.432 65.808ZM48.624 74H39.024V65.616L40.496 58.064L38.832 50.512V27.536H48.624V74ZM65.1185 74.128L52.3185 42.896H62.8785L71.0065 67.664H67.1025L75.4225 42.896H85.9825L72.6705 74.128H65.1185ZM57.1185 87.12L66.4625 66.96L72.6705 74.128L67.1665 87.12H57.1185ZM88.956 74V27.536H98.748V74H88.956ZM105.644 74V27.536H115.436V74H105.644ZM137.307 74.704C134.107 74.704 131.206 74 128.603 72.592C126.043 71.1413 124.016 69.1787 122.523 66.704C121.03 64.2293 120.283 61.456 120.283 58.384C120.283 55.312 121.03 52.56 122.523 50.128C124.016 47.696 126.043 45.776 128.603 44.368C131.163 42.9173 134.064 42.192 137.307 42.192C140.55 42.192 143.451 42.896 146.011 44.304C148.571 45.712 150.598 47.6533 152.091 50.128C153.584 52.56 154.331 55.312 154.331 58.384C154.331 61.456 153.584 64.2293 152.091 66.704C150.598 69.1787 148.571 71.1413 146.011 72.592C143.451 74 140.55 74.704 137.307 74.704ZM137.307 65.808C138.715 65.808 139.952 65.5093 141.019 64.912C142.086 64.272 142.896 63.3973 143.451 62.288C144.048 61.136 144.347 59.8347 144.347 58.384C144.347 56.9333 144.048 55.6747 143.451 54.608C142.854 53.4987 142.022 52.6453 140.955 52.048C139.931 51.408 138.715 51.088 137.307 51.088C135.942 51.088 134.726 51.408 133.659 52.048C132.592 52.6453 131.76 53.4987 131.163 54.608C130.566 55.7173 130.267 56.9973 130.267 58.448C130.267 59.856 130.566 61.136 131.163 62.288C131.76 63.3973 132.592 64.272 133.659 64.912C134.726 65.5093 135.942 65.808 137.307 65.808ZM179.75 74V56.272C179.75 54.6507 179.238 53.3493 178.214 52.368C177.233 51.344 175.974 50.832 174.438 50.832C173.371 50.832 172.433 51.0667 171.622 51.536C170.811 51.9627 170.171 52.6027 169.702 53.456C169.233 54.2667 168.998 55.2053 168.998 56.272L165.222 54.416C165.222 51.984 165.755 49.8507 166.822 48.016C167.889 46.1813 169.361 44.7733 171.238 43.792C173.158 42.768 175.313 42.256 177.702 42.256C180.006 42.256 182.033 42.8107 183.782 43.92C185.574 44.9867 186.982 46.416 188.006 48.208C189.03 50 189.542 51.9627 189.542 54.096V74H179.75ZM159.206 74V42.896H168.998V74H159.206Z"/><path fill="#000" d="M192.567 77.52L208.247 25.68H216.759L201.079 77.52H192.567ZM232.655 74.704C229.796 74.704 227.258 74.128 225.039 72.976C222.863 71.7813 221.156 70.16 219.919 68.112C218.682 66.0213 218.063 63.632 218.063 60.944V42.896H227.855V60.816C227.855 61.8827 228.026 62.8 228.367 63.568C228.751 64.336 229.306 64.9333 230.031 65.36C230.756 65.7867 231.631 66 232.655 66C234.106 66 235.258 65.552 236.111 64.656C236.964 63.7173 237.391 62.4373 237.391 60.816V42.896H247.183V60.88C247.183 63.6107 246.564 66.0213 245.327 68.112C244.09 70.16 242.383 71.7813 240.207 72.976C238.031 74.128 235.514 74.704 232.655 74.704ZM253.331 74V42.896H263.123V74H253.331ZM258.259 38.608C256.723 38.608 255.443 38.096 254.419 37.072C253.438 36.0053 252.947 34.7253 252.947 33.232C252.947 31.696 253.438 30.416 254.419 29.392C255.443 28.368 256.723 27.856 258.259 27.856C259.795 27.856 261.054 28.368 262.035 29.392C263.016 30.416 263.507 31.696 263.507 33.232C263.507 34.7253 263.016 36.0053 262.035 37.072C261.054 38.096 259.795 38.608 258.259 38.608Z"/></svg>